<svg xmlns="http://www.w3.org/2000/svg" viewBox="0 0 97.89 97.89"><defs><style>.cls-1{fill:none;stroke:#0d6efd;stroke-miterlimit:10;stroke-width:4px;}.cls-2{fill:#333;}</style></defs><title>Ресурс 5</title><g id="Слой_2" data-name="Слой 2"><g id="Слой_1-2" data-name="Слой 1"><path class="cls-1" d="M86.89,95.89H11a9,9,0,0,1-9-9V11a9,9,0,0,1,9-9h75.9a9,9,0,0,1,9,9V86.89A9,9,0,0,1,86.89,95.89Z"/><path class="cls-2" d="M23.72,74.42c.39.22.81.48,1.27.75C24.57,74.93,24.14,74.69,23.72,74.42Z"/><path class="cls-2" d="M29,48.93c-3.33-3.57-5.85-9.44-5.33-14.33,1.43-13.68,21.42-23.44,42.26-14.36l.35.16c.6.27,1.21.55,1.81.85a.24.24,0,0,1,0,.13l-.82,2.9v0l-5,17.87-.08.12.19.12c4.63,3.19,8,9.2,8.39,14C72.05,72.86,48.18,88.24,25.05,75.2l-.06,0c-.46-.27-.88-.53-1.27-.75l-.08,0c-.66-.4-1.32-.82-2-1.28l.82-2.71.13-.42Z"/><path class="cls-2" d="M68.09,21.28l0,.1a.24.24,0,0,0,0-.13S68.08,21.26,68.09,21.28Z"/><path class="cls-1" d="M23.64,74.37c-.66-.4-1.32-.82-2-1.28"/><path class="cls-1" d="M25,75.17c-.42-.24-.85-.48-1.27-.75"/><path class="cls-1" d="M44.34,39.78c1.3-.37,10-2.73,17.78,2.51l.19.12c4.63,3.19,8,9.2,8.39,14C72.05,72.86,48.18,88.24,25.05,75.2"/><path class="cls-1" d="M65.89,20.24c-20.84-9.08-40.83.68-42.26,14.36-.52,4.89,2,10.76,5.33,14.33,6.85,7.33,16.59,6.58,17.87,6.46"/><path class="cls-1" d="M68.09,21.28s0,0,0,0c-.6-.3-1.21-.58-1.81-.85"/><line class="cls-1" x1="22.62" y1="69.96" x2="28.96" y2="48.93"/><line class="cls-1" x1="21.67" y1="73.09" x2="22.49" y2="70.38"/><polyline class="cls-1" points="67.25 24.28 68.07 21.38 68.09 21.28"/><line class="cls-1" x1="62.2" y1="42.17" x2="67.24" y2="24.3"/><path class="cls-1" d="M65.89,20.24l.35.16a10.22,10.22,0,0,1,1.81.85.24.24,0,0,1,0,.13,13.37,13.37,0,0,1-.82,2.9v0"/><path class="cls-1" d="M25.05,75.2l-.06,0c-.46-.27-.88-.53-1.27-.75l-.08,0c-1.19-.67-2-1.1-2-1.28s.49-1.69.82-2.71l.13-.42"/></g></g></svg>