<svg xmlns="http://www.w3.org/2000/svg" viewBox="0 0 101.89 101.89"><defs><style>.cls-1{fill:#fcfcfc;}.cls-2{fill:#333;}.cls-3{fill:#0d6efd;}.cls-4,.cls-5{fill:none;stroke-width:8px;}.cls-4{stroke:#2d2d2d;stroke-miterlimit:10;}.cls-5{stroke:#0d6efd;stroke-linecap:round;stroke-linejoin:round;}</style></defs><title>Ресурс 8</title><g id="Слой_2" data-name="Слой 2"><g id="Слой_1-2" data-name="Слой 1"><path class="cls-1" d="M97.89,13V88.89a9,9,0,0,1-9,9H13a9,9,0,0,1-9-9V13a9,9,0,0,1,9-9H88.89A9,9,0,0,1,97.89,13Zm-72,63.51c23.5,14.25,48.22-1.38,46.84-18.07a20.7,20.7,0,0,0-8.39-14,1,1,0,0,0-.19-.12l.09-.13,5.08-18a11.39,11.39,0,0,0,.78-2.82l0-.07,0,0a9.64,9.64,0,0,0-1.78-.85c-21-9.36-41.21.44-42.64,14.19-.52,4.89,2,10.76,5.33,14.33L24.46,72.5l-.17.53a20.48,20.48,0,0,0-.61,2v.06C23.67,75.28,24.51,75.72,25.86,76.51Z"/><path class="cls-1" d="M64.12,44.29a1,1,0,0,1,.19.12,20.7,20.7,0,0,1,8.39,14c1.38,16.69-23.34,32.32-46.84,18.07-.72-.45-1.46-.92-2.19-1.42V75l.61-2,.17-.53L31,50.92c-3.32-3.57-5.85-9.44-5.33-14.33C27.06,22.84,47.28,13,68.27,22.4c.59.27,1.18.55,1.78.85a.24.24,0,0,1,0,.09l-.78,2.82-5.08,18Z"/><path class="cls-2" d="M70.1,23.27l0,.07a.24.24,0,0,0,0-.09Z"/><path class="cls-3" d="M68.27,22.4a9.64,9.64,0,0,1,1.78.85C69.45,23,68.86,22.67,68.27,22.4Z"/><path class="cls-3" d="M24.29,73l-.61,2A20.48,20.48,0,0,1,24.29,73Z"/><path class="cls-4" d="M46.34,41.78c1.31-.38,10-2.74,17.78,2.51a1,1,0,0,1,.19.12,20.7,20.7,0,0,1,8.39,14c1.38,16.69-23.34,32.32-46.84,18.07-.72-.45-1.46-.92-2.19-1.42"/><path class="cls-4" d="M70.1,23.27l0,0c-.6-.3-1.19-.58-1.78-.85-21-9.36-41.21.44-42.64,14.19-.52,4.89,2,10.76,5.33,14.33,6.85,7.34,16.59,6.58,17.87,6.47"/><line class="cls-4" x1="24.46" y1="72.5" x2="30.96" y2="50.92"/><line class="cls-4" x1="23.68" y1="75.03" x2="24.29" y2="73.03"/><polyline class="cls-4" points="64.21 44.16 69.29 26.16 70.07 23.34 70.1 23.27"/><path class="cls-4" d="M68.27,22.4a9.64,9.64,0,0,1,1.78.85.24.24,0,0,1,0,.09,11.39,11.39,0,0,1-.78,2.82"/><path class="cls-4" d="M26.84,77.07c-.35-.2-.67-.4-1-.56-1.35-.79-2.19-1.23-2.19-1.42V75a20.48,20.48,0,0,1,.61-2l.17-.53"/><path class="cls-5" d="M88.89,97.89H13a9,9,0,0,1-9-9V13a9,9,0,0,1,9-9H88.89a9,9,0,0,1,9,9V88.89A9,9,0,0,1,88.89,97.89Z"/></g></g></svg>